<svg width="140" height="19" viewBox="0 0 140 19" fill="none" xmlns="http://www.w3.org/2000/svg">
<path d="M14.64 18H10.272L7.44 13.152L4.608 18H0.24L5.256 9.384L0.48 1.2H4.848L7.44 5.64L10.032 1.2H14.4L9.624 9.384L14.64 18ZM19.5148 4.32C19.0988 4.736 18.5948 4.944 18.0028 4.944C17.4108 4.944 16.8988 4.736 16.4668 4.32C16.0508 3.888 15.8428 3.376 15.8428 2.784C15.8428 2.192 16.0508 1.688 16.4668 1.272C16.8988 0.839999 17.4108 0.623999 18.0028 0.623999C18.5948 0.623999 19.0988 0.839999 19.5148 1.272C19.9468 1.688 20.1628 2.192 20.1628 2.784C20.1628 3.376 19.9468 3.888 19.5148 4.32ZM16.2028 18V6H19.8028V18H16.2028ZM31.1492 6H34.7492V18H31.1492V16.872C30.3012 17.848 29.1092 18.336 27.5732 18.336C25.9892 18.336 24.6372 17.728 23.5172 16.512C22.3972 15.28 21.8372 13.776 21.8372 12C21.8372 10.224 22.3972 8.728 23.5172 7.512C24.6372 6.28 25.9892 5.664 27.5732 5.664C29.1092 5.664 30.3012 6.152 31.1492 7.128V6ZM26.2292 14.136C26.7572 14.664 27.4452 14.928 28.2932 14.928C29.1412 14.928 29.8292 14.664 30.3572 14.136C30.8852 13.608 31.1492 12.896 31.1492 12C31.1492 11.104 30.8852 10.392 30.3572 9.864C29.8292 9.336 29.1412 9.072 28.2932 9.072C27.4452 9.072 26.7572 9.336 26.2292 9.864C25.7012 10.392 25.4372 11.104 25.4372 12C25.4372 12.896 25.7012 13.608 26.2292 14.136ZM47.6623 16.512C46.4303 17.728 44.9263 18.336 43.1503 18.336C41.3743 18.336 39.8703 17.728 38.6383 16.512C37.4063 15.28 36.7903 13.776 36.7903 12C36.7903 10.224 37.4063 8.728 38.6383 7.512C39.8703 6.28 41.3743 5.664 43.1503 5.664C44.9263 5.664 46.4303 6.28 47.6623 7.512C48.8943 8.728 49.5103 10.224 49.5103 12C49.5103 13.776 48.8943 15.28 47.6623 16.512ZM41.1823 14.04C41.7103 14.568 42.3663 14.832 43.1503 14.832C43.9343 14.832 44.5903 14.568 45.1183 14.04C45.6463 13.512 45.9103 12.832 45.9103 12C45.9103 11.168 45.6463 10.488 45.1183 9.96C44.5903 9.432 43.9343 9.168 43.1503 9.168C42.3663 9.168 41.7103 9.432 41.1823 9.96C40.6543 10.488 40.3903 11.168 40.3903 12C40.3903 12.832 40.6543 13.512 41.1823 14.04ZM64.9866 5.664C66.3626 5.664 67.4666 6.12 68.2986 7.032C69.1306 7.928 69.5466 9.128 69.5466 10.632V18H65.9466V10.944C65.9466 10.336 65.7946 9.856 65.4906 9.504C65.2026 9.152 64.7786 8.976 64.2186 8.976C63.6266 8.976 63.1626 9.176 62.8266 9.576C62.5066 9.976 62.3466 10.528 62.3466 11.232V18H58.7466V10.944C58.7466 10.336 58.5946 9.856 58.2906 9.504C58.0026 9.152 57.5786 8.976 57.0186 8.976C56.4266 8.976 55.9626 9.176 55.6266 9.576C55.3066 9.976 55.1466 10.528 55.1466 11.232V18H51.5466V6H55.1466V7.104C55.8026 6.144 56.8746 5.664 58.3626 5.664C59.7546 5.664 60.8026 6.192 61.5066 7.248C62.2426 6.192 63.4026 5.664 64.9866 5.664ZM75.3195 4.32C74.9035 4.736 74.3995 4.944 73.8075 4.944C73.2155 4.944 72.7035 4.736 72.2715 4.32C71.8555 3.888 71.6475 3.376 71.6475 2.784C71.6475 2.192 71.8555 1.688 72.2715 1.272C72.7035 0.839999 73.2155 0.623999 73.8075 0.623999C74.3995 0.623999 74.9035 0.839999 75.3195 1.272C75.7515 1.688 75.9675 2.192 75.9675 2.784C75.9675 3.376 75.7515 3.888 75.3195 4.32ZM72.0075 18V6H75.6075V18H72.0075Z" fill="#373737"/>
<path d="M90.1459 18.312C88.5779 18.312 87.2339 17.944 86.1139 17.208C85.0099 16.472 84.2339 15.464 83.7859 14.184L85.7059 13.08C86.3619 15.112 87.8579 16.128 90.1939 16.128C91.3459 16.128 92.2259 15.896 92.8339 15.432C93.4419 14.952 93.7459 14.32 93.7459 13.536C93.7459 12.736 93.4419 12.136 92.8339 11.736C92.2259 11.336 91.2099 10.912 89.7859 10.464C89.0819 10.24 88.5459 10.064 88.1779 9.936C87.8099 9.792 87.3459 9.584 86.7859 9.312C86.2419 9.024 85.8339 8.736 85.5619 8.448C85.2899 8.144 85.0419 7.752 84.8179 7.272C84.6099 6.792 84.5059 6.248 84.5059 5.64C84.5059 4.184 85.0179 3.032 86.0419 2.184C87.0659 1.32 88.3139 0.887999 89.7859 0.887999C91.1139 0.887999 92.2659 1.224 93.2419 1.896C94.2339 2.568 94.9779 3.456 95.4739 4.56L93.6019 5.64C92.8819 3.912 91.6099 3.048 89.7859 3.048C88.8739 3.048 88.1379 3.272 87.5779 3.72C87.0179 4.168 86.7379 4.776 86.7379 5.544C86.7379 6.28 87.0019 6.84 87.5299 7.224C88.0579 7.608 88.9699 8.008 90.2659 8.424C90.7299 8.568 91.0579 8.672 91.2499 8.736C91.4419 8.8 91.7379 8.912 92.1379 9.072C92.5539 9.232 92.8579 9.36 93.0499 9.456C93.2419 9.552 93.4979 9.688 93.8179 9.864C94.1539 10.04 94.4019 10.208 94.5619 10.368C94.7219 10.528 94.9059 10.728 95.1139 10.968C95.3379 11.192 95.4979 11.424 95.5939 11.664C95.6899 11.904 95.7699 12.184 95.8339 12.504C95.9139 12.808 95.9539 13.136 95.9539 13.488C95.9539 14.96 95.4179 16.136 94.3459 17.016C93.2739 17.88 91.8739 18.312 90.1459 18.312ZM104.557 8.016H101.365V14.52C101.365 15.112 101.477 15.536 101.701 15.792C101.941 16.032 102.301 16.16 102.781 16.176C103.261 16.176 103.853 16.16 104.557 16.128V18C102.733 18.24 101.397 18.096 100.549 17.568C99.7013 17.024 99.2773 16.008 99.2773 14.52V8.016H96.9013V6H99.2773V3.264L101.365 2.64V6H104.557V8.016ZM116.548 16.488C115.316 17.704 113.82 18.312 112.06 18.312C110.3 18.312 108.804 17.704 107.572 16.488C106.356 15.272 105.748 13.776 105.748 12C105.748 10.224 106.356 8.728 107.572 7.512C108.804 6.296 110.3 5.688 112.06 5.688C113.82 5.688 115.316 6.296 116.548 7.512C117.78 8.728 118.396 10.224 118.396 12C118.396 13.776 117.78 15.272 116.548 16.488ZM112.06 16.272C113.26 16.272 114.268 15.864 115.084 15.048C115.9 14.232 116.308 13.216 116.308 12C116.308 10.784 115.9 9.768 115.084 8.952C114.268 8.136 113.26 7.728 112.06 7.728C110.876 7.728 109.876 8.136 109.06 8.952C108.244 9.768 107.836 10.784 107.836 12C107.836 13.216 108.244 14.232 109.06 15.048C109.876 15.864 110.876 16.272 112.06 16.272ZM122.945 8.016C123.633 6.528 124.881 5.784 126.689 5.784V7.968C125.665 7.92 124.785 8.192 124.049 8.784C123.313 9.376 122.945 10.328 122.945 11.64V18H120.857V6H122.945V8.016ZM129.54 12.96C129.748 14.032 130.236 14.864 131.004 15.456C131.788 16.048 132.748 16.344 133.884 16.344C135.468 16.344 136.62 15.76 137.34 14.592L139.116 15.6C137.948 17.408 136.188 18.312 133.836 18.312C131.932 18.312 130.38 17.72 129.18 16.536C127.996 15.336 127.404 13.824 127.404 12C127.404 10.192 127.988 8.688 129.156 7.488C130.324 6.288 131.836 5.688 133.692 5.688C135.452 5.688 136.884 6.312 137.988 7.56C139.108 8.792 139.668 10.28 139.668 12.024C139.668 12.328 139.644 12.64 139.596 12.96H129.54ZM133.692 7.656C132.572 7.656 131.644 7.976 130.908 8.616C130.172 9.24 129.716 10.08 129.54 11.136H137.556C137.38 10 136.932 9.136 136.212 8.544C135.492 7.952 134.652 7.656 133.692 7.656Z" fill="#A9A9A9"/>
</svg>
