<svg width="41" height="35" viewBox="0 0 41 35" fill="none" xmlns="http://www.w3.org/2000/svg">
<path d="M38.8761 20.1266V18.1173C38.8761 13.278 36.9916 8.7283 33.5697 5.30642C30.1478 1.88454 25.5981 0 20.7588 0C15.9195 0 11.3698 1.88454 7.94794 5.3065C4.52606 8.72838 2.64153 13.278 2.64153 18.1174V20.1267C1.53121 20.6411 0.758789 21.7654 0.758789 23.0675V28.1436C0.758789 29.9301 2.21231 31.3837 3.99887 31.3837H5.872C6.00528 33.3166 7.61935 34.8489 9.58553 34.8489C11.6387 34.8489 13.309 33.1785 13.309 31.1254V20.0858C13.309 18.1084 11.7594 16.4868 9.81084 16.3697C10.6515 11.0842 15.2405 7.03126 20.7588 7.03126C26.2772 7.03126 30.8662 11.0843 31.7067 16.3698C29.7582 16.4868 28.2085 18.1085 28.2085 20.0859V31.1254C28.2085 33.1785 29.8789 34.8489 31.9321 34.8489C33.8982 34.8489 35.5123 33.3167 35.6456 31.3837H37.5187C39.3053 31.3837 40.7588 29.9302 40.7588 28.1436V23.0675C40.7589 21.7654 39.9864 20.6411 38.8761 20.1266ZM5.86208 29.0399H3.99887C3.50465 29.04 3.10254 28.6378 3.10254 28.1436V23.0675C3.10254 22.5732 3.50465 22.1711 3.99887 22.1711H5.86208V29.0399ZM10.9654 20.0858V31.1253C10.9654 31.8861 10.3464 32.5051 9.5856 32.5051C8.82482 32.5051 8.20584 31.8861 8.20584 31.1253V20.0858C8.20584 19.325 8.82482 18.7061 9.5856 18.7061C10.3464 18.7061 10.9654 19.325 10.9654 20.0858ZM33.3118 31.1253C33.3118 31.8861 32.6928 32.5051 31.9321 32.5051C31.1713 32.5051 30.5523 31.8861 30.5523 31.1253V20.0858C30.5523 19.325 31.1713 18.7061 31.9321 18.7061C32.6928 18.7061 33.3118 19.325 33.3118 20.0858V31.1253ZM34.1501 17.0972C33.6271 10.1666 27.8209 4.68751 20.7588 4.68751C13.6968 4.68751 7.89052 10.1666 7.36747 17.0971C6.5195 17.728 5.94903 18.7109 5.872 19.8274H4.98528V18.1172C4.98528 13.9039 6.62599 9.94283 9.60521 6.96361C12.5844 3.98454 16.5455 2.34376 20.7588 2.34376C24.9721 2.34376 28.9332 3.98454 31.9124 6.96376C34.8917 9.94299 36.5324 13.9041 36.5324 18.1174V19.8275H35.6456C35.5686 18.711 34.9981 17.7282 34.1501 17.0972ZM38.4151 28.1437C38.4151 28.6379 38.013 29.0401 37.5188 29.0401H35.6556V22.1712H37.5188C38.013 22.1712 38.4151 22.5732 38.4151 23.0675V28.1437Z" fill="url(#paint0_linear)"/>
<defs>
<linearGradient id="paint0_linear" x1="1" y1="35" x2="41" y2="-1.14406e-07" gradientUnits="userSpaceOnUse">
<stop stop-color="#2A64F0"/>
<stop offset="0.431503" stop-color="#00B8FE"/>
<stop offset="1" stop-color="#FF4EB5"/>
</linearGradient>
</defs>
</svg>
