<svg width="60" height="60" fill="none" xmlns="http://www.w3.org/2000/svg"><g clip-path="url(#clip0)"><path fill-rule="evenodd" clip-rule="evenodd" d="M30 60c16.569 0 30-13.431 30-30C60 13.431 46.569 0 30 0 13.431 0 0 13.431 0 30c0 16.569 13.431 30 30 30z" fill="#FF6B2C"/><path opacity=".5" d="M30 39.548c5.808 0 10.517-5.719 10.517-12.774C40.517 19.72 38.97 14 30 14c-8.971 0-10.518 5.72-10.518 12.774 0 7.055 4.71 12.774 10.518 12.774z" fill="#000"/><path d="M10.136 59.053c-.002-.43-.003-.121 0 0zm39.728.336c.006-.118.002-.817 0 0z" fill="#000"/><path opacity=".5" d="M49.842 58.538c-.194-12.29-1.8-15.792-14.082-18.009 0 0-1.73 2.203-5.759 2.203-4.03 0-5.76-2.203-5.76-2.203-12.148 2.193-13.85 5.643-14.074 17.61-.018.977-.027 1.028-.03.915l.001 1.29s2.925 5.896 19.863 5.896 19.863-5.895 19.863-5.895v-.955c-.003.07-.01-.066-.022-.852z" fill="#000"/></g><defs><clipPath id="clip0"><rect width="60" height="60" rx="30" fill="#fff"/></clipPath></defs></svg>
