<svg width="40" height="40" viewBox="0 0 40 40" fill="none" xmlns="http://www.w3.org/2000/svg">
<path fill-rule="evenodd" clip-rule="evenodd" d="M35.2344 14.7489L39.6567 19.1715C39.9918 19.5065 40.0922 20.0104 39.9107 20.4483C39.7294 20.8862 39.3021 21.1719 38.8282 21.1719H35.2344V38.8282C35.2344 39.4751 34.7095 40 34.0626 40H5.93752C5.29025 40 4.76565 39.4751 4.76565 38.8282V21.1719H1.17189C0.697954 21.1719 0.270707 20.8862 0.0891274 20.4483C-0.0921472 20.0104 0.00825577 19.5065 0.343339 19.1715L19.1715 0.343323C19.6289 -0.114441 20.3711 -0.114441 20.8286 0.343323L28.2032 7.7176V5.9375C28.2032 5.29023 28.7278 4.76563 29.3751 4.76563H34.0626C34.7095 4.76563 35.2344 5.29023 35.2344 5.9375V14.7489ZM32.8907 7.10938H30.5469V10.0613L32.8907 12.4051V7.10938ZM32.8907 20C32.8907 19.3527 33.4153 18.8281 34.0626 18.8281H35.9989L20 2.82929L4.00088 18.8281H5.93752C6.5848 18.8281 7.1094 19.3527 7.1094 20V37.6563H32.8907V20ZM10.8892 20.264C13.3264 17.8268 16.5621 16.4844 20.0003 16.4844C23.8287 16.4844 27.4365 18.176 29.8984 21.1252C30.3131 21.622 30.2466 22.3608 29.7497 22.7759C29.2529 23.1906 28.5138 23.1241 28.099 22.627C26.084 20.2127 23.132 18.8281 20.0003 18.8281C17.1884 18.8281 14.541 19.9268 12.5463 21.9211C12.0889 22.3789 11.3467 22.3789 10.8892 21.9211C10.4315 21.4636 10.4315 20.7217 10.8892 20.264ZM20.0001 21.1719C17.812 21.1719 15.7526 22.0258 14.2017 23.5767C13.744 24.0341 13.744 24.7763 14.2017 25.2338C14.6592 25.6915 15.4014 25.6915 15.8591 25.2338C16.9672 24.126 18.4379 23.5156 20.0001 23.5156C21.7399 23.5156 23.3799 24.285 24.4996 25.6265C24.9143 26.1234 25.6535 26.1899 26.1503 25.7751C26.6471 25.3604 26.7136 24.6213 26.2989 24.1245C24.7327 22.2479 22.4366 21.1719 20.0001 21.1719ZM16.4844 29.375C16.4844 27.4362 18.0615 25.8594 20 25.8594C21.9385 25.8594 23.5156 27.4362 23.5156 29.375C23.5156 31.3135 21.9385 32.8906 20 32.8906C18.0615 32.8906 16.4844 31.3135 16.4844 29.375ZM18.8281 29.375C18.8281 30.0211 19.3536 30.5469 20 30.5469C20.6461 30.5469 21.1719 30.0211 21.1719 29.375C21.1719 28.7286 20.6461 28.2031 20 28.2031C19.3536 28.2031 18.8281 28.7286 18.8281 29.375Z" fill="url(#paint0_linear)"/>
<defs>
<linearGradient id="paint0_linear" x1="34" y1="5" x2="-5.14923e-06" y2="40" gradientUnits="userSpaceOnUse">
<stop stop-color="#FAC937"/>
<stop offset="0.507945" stop-color="#EF5D95"/>
<stop offset="0.979167" stop-color="#5DA9EF"/>
</linearGradient>
</defs>
</svg>
