<svg width="22" height="42" viewBox="0 0 22 42" fill="none" xmlns="http://www.w3.org/2000/svg">
<path fill-rule="evenodd" clip-rule="evenodd" d="M0.0800781 4C0.0800781 1.79086 1.87094 0 4.08008 0H11.0001H17.9201C20.1292 0 21.9201 1.79086 21.9201 4V38C21.9201 40.2091 20.1292 42 17.9201 42H4.08007C1.87093 42 0.0800781 40.2091 0.0800781 38V4ZM9.32008 1.68H3.76C2.65543 1.68 1.76 2.57543 1.76 3.68V38.32C1.76 39.4246 2.65543 40.32 3.76 40.32H18.24C19.3446 40.32 20.24 39.4246 20.24 38.32V3.68C20.24 2.57543 19.3446 1.68 18.24 1.68H12.6801C12.6801 2.60784 11.9279 3.36 11.0001 3.36C10.0722 3.36 9.32008 2.60784 9.32008 1.68Z" fill="url(#paint0_linear)"/>
<defs>
<linearGradient id="paint0_linear" x1="2.50357e-07" y1="42" x2="22" y2="-6.98887e-07" gradientUnits="userSpaceOnUse">
<stop stop-color="#00DED4"/>
<stop offset="0.494792" stop-color="#4554DB"/>
<stop offset="1" stop-color="#A31DAE"/>
</linearGradient>
</defs>
</svg>
