<svg width="40" height="37" viewBox="0 0 40 37" fill="none" xmlns="http://www.w3.org/2000/svg">
<path fill-rule="evenodd" clip-rule="evenodd" d="M37.2656 0H2.73438C1.22664 0 0 1.22664 0 2.73437V24.6094C0 26.1171 1.22664 27.3437 2.73438 27.3437H14.2773V30.4763L4.7707 33.7877C4.15953 34.0006 3.83664 34.6687 4.04961 35.2798C4.26258 35.8912 4.93062 36.2138 5.5418 36.001L18.3297 31.5466C19.4068 31.1714 20.5934 31.1714 21.6705 31.5466L34.4584 36.001C34.586 36.0455 34.716 36.0666 34.844 36.0666C35.3287 36.0666 35.7821 35.7634 35.9505 35.2798C36.1635 34.6687 35.8406 34.0006 35.2295 33.7877L25.7227 30.4763V27.3437H37.2656C38.7734 27.3437 40 26.1171 40 24.6094V2.73437C40 1.22664 38.7734 0 37.2656 0ZM23.3789 29.6599L22.4414 29.3334C20.867 28.7849 19.133 28.7849 17.5586 29.3334L16.6211 29.6599V27.3437H23.3789V29.6599ZM37.6562 24.6094C37.6562 24.8248 37.481 25 37.2656 25H2.73438C2.51898 25 2.34375 24.8248 2.34375 24.6094V2.73437C2.34375 2.51898 2.51898 2.34375 2.73438 2.34375H37.2656C37.481 2.34375 37.6562 2.51898 37.6562 2.73437V24.6094ZM6.37551 9.03277L9.12262 6.28566C9.58027 5.82801 9.58027 5.08605 9.12262 4.6284C8.66504 4.17074 7.92301 4.17074 7.46535 4.6284L4.71824 7.37551C4.26059 7.83316 4.26059 8.57512 4.71824 9.03277C4.94707 9.2616 5.24699 9.37605 5.54684 9.37605C5.84668 9.37605 6.14676 9.2616 6.37551 9.03277ZM5.62938 12.7133L12.8041 5.53856C13.2617 5.0809 14.0038 5.0809 14.4613 5.53856C14.919 5.99621 14.919 6.73816 14.4613 7.19582L7.28656 14.3706C7.05781 14.5995 6.75781 14.7139 6.45797 14.7139C6.15813 14.7139 5.8582 14.5994 5.62938 14.3706C5.17172 13.9129 5.17172 13.171 5.62938 12.7133Z" fill="url(#paint0_linear)"/>
<defs>
<linearGradient id="paint0_linear" x1="40" y1="-8.23664e-07" x2="3.29063e-07" y2="36" gradientUnits="userSpaceOnUse">
<stop stop-color="#FED5C8"/>
<stop offset="0.489583" stop-color="#F82626"/>
<stop offset="1" stop-color="#33DBFB"/>
</linearGradient>
</defs>
</svg>
