<svg width="40" height="40" viewBox="0 0 40 40" fill="none" xmlns="http://www.w3.org/2000/svg">
<path fill-rule="evenodd" clip-rule="evenodd" d="M20 0C25.3421 0 30.3647 2.08038 34.1422 5.85785C37.9196 9.63531 40 14.6579 40 20C40 25.3421 37.9196 30.3647 34.1422 34.1422C30.3647 37.9196 25.3421 40 20 40C14.6579 40 9.63531 37.9196 5.85785 34.1422C2.08038 30.3647 0 25.3421 0 20C0 14.6579 2.08038 9.63531 5.85785 5.85785C9.63531 2.08038 14.6579 0 20 0ZM37.6163 18.8281C37.0111 9.63684 29.3417 2.34375 20 2.34375C10.6583 2.34375 2.98889 9.63684 2.38373 18.8281H4.73206C5.33234 10.9302 11.951 4.6875 20 4.6875C28.049 4.6875 34.6677 10.9302 35.2679 18.8281H37.6163ZM20 7.03125C17.8928 7.03125 15.9015 7.53693 14.1406 8.43231V20.1719C14.1406 20.7242 14.5883 21.1719 15.1406 21.1719H24.8594C25.4117 21.1719 25.8594 20.7242 25.8594 20.1719V8.43231C24.0985 7.53693 22.1072 7.03125 20 7.03125ZM28.2031 20.5156C28.2031 22.1725 26.86 23.5156 25.2031 23.5156H14.7969C13.14 23.5156 11.7969 22.1725 11.7969 20.5156V9.96307C8.88977 12.3431 7.03125 15.9586 7.03125 20C7.03125 27.1509 12.8491 32.9688 20 32.9688C27.1509 32.9688 32.9688 27.1509 32.9688 20C32.9688 15.9586 31.1102 12.3431 28.2031 9.96307V20.5156ZM2.38373 21.1719C2.98889 30.3632 10.6583 37.6562 20 37.6562C29.3417 37.6562 37.0111 30.3632 37.6163 21.1719H35.2679C34.6677 29.0698 28.049 35.3125 20 35.3125C11.951 35.3125 5.33234 29.0698 4.73206 21.1719H2.38373ZM16.4844 12.8906C16.4844 10.9521 18.0615 9.375 20 9.375C21.9385 9.375 23.5156 10.9521 23.5156 12.8906C23.5156 14.8291 21.9385 16.4062 20 16.4062C18.0615 16.4062 16.4844 14.8291 16.4844 12.8906ZM18.8281 12.8906C18.8281 13.5367 19.3539 14.0625 20 14.0625C20.6461 14.0625 21.1719 13.5367 21.1719 12.8906C21.1719 12.2446 20.6461 11.7188 20 11.7188C19.3539 11.7188 18.8281 12.2446 18.8281 12.8906Z" fill="url(#paint0_linear)"/>
<defs>
<linearGradient id="paint0_linear" x1="35.5" y1="5" x2="6" y2="37" gradientUnits="userSpaceOnUse">
<stop stop-color="#8776F9"/>
<stop offset="0.510417" stop-color="#7EE7FE"/>
<stop offset="1" stop-color="#F868F6"/>
</linearGradient>
</defs>
</svg>
