<svg width="44" height="44" viewBox="0 0 44 44" fill="none" xmlns="http://www.w3.org/2000/svg">
<path fill-rule="evenodd" clip-rule="evenodd" d="M42.8401 11.4287L36.5726 20.5893C36.3207 20.9567 36.0356 21.2997 35.721 21.6149L21.8551 35.4808C21.5399 35.7954 21.1969 36.0805 20.8301 36.3329L11.6675 42.6002C10.7146 43.2521 9.43238 43.1328 8.61561 42.3166L1.4429 35.1438C0.625861 34.3268 0.506813 33.0438 1.15951 32.0906L7.42707 22.9299C7.67898 22.5626 7.96403 22.2195 8.27864 21.9044L22.1446 8.03844C22.4597 7.72384 22.8028 7.43879 23.1696 7.18633L32.3321 0.91904C33.2851 0.267176 34.5673 0.3865 35.384 1.20271L42.5567 8.37542C43.3738 9.19246 43.4928 10.4755 42.8401 11.4287ZM19.9266 35.0118C20.2119 34.816 20.4787 34.5944 20.7237 34.3494L34.5896 20.4835C34.8346 20.2385 35.0564 19.9714 35.252 19.6853L41.5207 10.5241C41.7375 10.2062 41.6974 9.77887 41.4254 9.50679L34.2527 2.33408C33.9803 2.06229 33.5536 2.02279 33.2362 2.23962L24.0731 8.50745C23.7878 8.70329 23.5209 8.92481 23.2759 9.16982L9.41001 23.0357C9.165 23.2807 8.9432 23.5478 8.74765 23.834L2.47898 32.9952C2.26215 33.3131 2.3022 33.7404 2.57427 34.0125L9.74699 41.1852C10.0193 41.457 10.4461 41.4965 10.7635 41.2796L19.9266 35.0118ZM32.1825 14.9714L28.7884 11.5773C27.225 10.0178 24.6949 10.0178 23.1316 11.5773L11.8179 22.891C10.2584 24.4544 10.2584 26.9845 11.8179 28.5479L15.212 31.942C16.7753 33.5015 19.3055 33.5015 20.8688 31.942L32.1825 20.6283C33.742 19.0649 33.742 16.5348 32.1825 14.9714ZM19.7374 30.8106C18.8003 31.7478 17.2805 31.7478 16.3433 30.8106L12.9492 27.4165C12.012 26.4793 12.012 24.9596 12.9492 24.0224L24.2629 12.7087C25.2001 11.7715 26.7199 11.7715 27.657 12.7087L31.0512 16.1028C31.9883 17.04 31.9883 18.5597 31.0512 19.4969L19.7374 30.8106ZM25.9598 20.0622C25.5425 19.6443 24.9848 19.3954 24.3951 19.3642C24.3426 18.4196 23.7396 17.594 22.856 17.2562C21.9721 16.9181 20.9725 17.131 20.303 17.7995C18.3797 19.7227 18.8816 23.6889 18.9454 24.135C18.9954 24.4872 19.2721 24.7639 19.6243 24.8139C20.0704 24.8777 24.0365 25.3796 25.9598 23.4563C26.897 22.5191 26.897 20.9994 25.9598 20.0622ZM20.4681 23.2912C20.3872 22.0358 20.4681 19.897 21.4343 18.9308C21.7467 18.6184 22.2533 18.6184 22.5657 18.9308C22.8781 19.2432 22.8781 19.7498 22.5657 20.0622C22.2533 20.3746 22.2533 20.8812 22.5657 21.1936C22.8781 21.506 23.3847 21.506 23.6971 21.1936C24.0095 20.8812 24.5161 20.8812 24.8285 21.1936C25.1409 21.506 25.1409 22.0126 24.8285 22.3249C23.8623 23.2911 21.7235 23.3721 20.4681 23.2912Z" fill="url(#paint0_linear)"/>
<defs>
<linearGradient id="paint0_linear" x1="43" y1="0.999999" x2="1" y2="43" gradientUnits="userSpaceOnUse">
<stop stop-color="#C8273B"/>
<stop offset="0.484375" stop-color="#EC5E3C"/>
<stop offset="1" stop-color="#CB56BB"/>
</linearGradient>
</defs>
</svg>
