<svg width="298" height="308" viewBox="0 0 298 308" fill="none" xmlns="http://www.w3.org/2000/svg">
<g filter="url(#filter0_d)">
<path d="M257.438 137.999C263.689 137.999 268.734 132.781 267.887 126.587C260.619 73.4435 218.556 31.3808 165.413 24.1124C159.219 23.2652 154 28.3098 154 34.5616V126.999C154 133.074 158.925 137.999 165 137.999H257.438Z" fill="#333333"/>
</g>
<g filter="url(#filter1_d)">
<path d="M267.887 169.412C268.734 163.218 263.689 157.999 257.438 157.999H165C158.925 157.999 154 162.924 154 168.999V261.437C154 267.689 159.219 272.733 165.413 271.886C218.556 264.618 260.619 222.555 267.887 169.412Z" fill="#FF6B2C"/>
<path d="M132.587 271.886C138.782 272.733 144 267.689 144 261.437V168.999C144 162.924 139.075 157.999 133 157.999H40.5624C34.3105 157.999 29.2659 163.218 30.1131 169.412C37.3815 222.555 79.4442 264.618 132.587 271.886Z" fill="#FF6B2C"/>
<path d="M144 44.5616C144 38.3098 138.782 33.2652 132.587 34.1124C79.4442 41.3808 37.3815 83.4435 30.1131 136.587C29.2659 142.781 34.3105 147.999 40.5624 147.999H133C139.075 147.999 144 143.074 144 136.999V44.5616Z" fill="#FF6B2C"/>
</g>
<defs>
<filter id="filter0_d" x="124" y="0.0195312" width="173.98" height="173.98" filterUnits="userSpaceOnUse" color-interpolation-filters="sRGB">
<feFlood flood-opacity="0" result="BackgroundImageFix"/>
<feColorMatrix in="SourceAlpha" type="matrix" values="0 0 0 0 0 0 0 0 0 0 0 0 0 0 0 0 0 0 127 0"/>
<feOffset dy="6"/>
<feGaussianBlur stdDeviation="15"/>
<feColorMatrix type="matrix" values="0 0 0 0 0 0 0 0 0 0 0 0 0 0 0 0 0 0 0.24 0"/>
<feBlend mode="normal" in2="BackgroundImageFix" result="effect1_dropShadow"/>
<feBlend mode="normal" in="SourceGraphic" in2="effect1_dropShadow" result="shape"/>
</filter>
<filter id="filter1_d" x="0.0200195" y="10.0195" width="297.96" height="297.96" filterUnits="userSpaceOnUse" color-interpolation-filters="sRGB">
<feFlood flood-opacity="0" result="BackgroundImageFix"/>
<feColorMatrix in="SourceAlpha" type="matrix" values="0 0 0 0 0 0 0 0 0 0 0 0 0 0 0 0 0 0 127 0"/>
<feOffset dy="6"/>
<feGaussianBlur stdDeviation="15"/>
<feColorMatrix type="matrix" values="0 0 0 0 1 0 0 0 0 0.419583 0 0 0 0 0.170833 0 0 0 0.4 0"/>
<feBlend mode="normal" in2="BackgroundImageFix" result="effect1_dropShadow"/>
<feBlend mode="normal" in="SourceGraphic" in2="effect1_dropShadow" result="shape"/>
</filter>
</defs>
</svg>
